<svg width="5" height="139" viewBox="0 0 5 139" fill="none" xmlns="http://www.w3.org/2000/svg">
<path fill-rule="evenodd" clip-rule="evenodd" d="M4.99999 143C2.23857 143 -6.28401e-06 140.761 -6.16331e-06 138C-6.0426e-06 135.239 2.23857 133 4.99999 133C7.76142 133 9.99999 135.239 9.99999 138C9.99999 140.761 7.76142 143 4.99999 143ZM-5.50763e-06 123C-5.62834e-06 125.761 2.23857 128 4.99999 128C7.76142 128 9.99999 125.761 9.99999 123C9.99999 120.239 7.76142 118 4.99999 118C2.23857 118 -5.38693e-06 120.239 -5.50763e-06 123ZM4.99999 112C2.23857 112 -5.88263e-06 109.761 -5.76193e-06 107C-5.64122e-06 104.239 2.23857 102 4.99999 102C7.76142 102 9.99999 104.239 9.99999 107C9.99999 109.761 7.76142 112 4.99999 112ZM-6.05993e-06 92C-6.18064e-06 94.7614 2.23857 97 4.99999 97C7.76142 97 9.99999 94.7614 9.99999 92C9.99999 89.2386 7.76142 87 4.99999 87C2.23857 87 -5.93922e-06 89.2386 -6.05993e-06 92ZM4.99999 7C2.23857 7 -6.06131e-06 4.76142 -5.9406e-06 2C-5.8199e-06 -0.761424 2.23857 -3 4.99999 -3C7.76142 -3 9.99999 -0.761424 9.99999 2C9.99999 4.76142 7.76142 7 4.99999 7ZM4.99999 22C2.23857 22 -6.71698e-06 19.7614 -6.59627e-06 17C-6.47557e-06 14.2386 2.23857 12 4.99999 12C7.76142 12 9.99999 14.2386 9.99999 17C9.99999 19.7614 7.76142 22 4.99999 22ZM-7.25194e-06 32C-7.37265e-06 34.7614 2.23857 37 4.99999 37C7.76142 37 9.99999 34.7614 9.99999 32C9.99999 29.2386 7.76142 27 4.99999 27C2.23857 27 -7.13124e-06 29.2386 -7.25194e-06 32ZM4.99999 52C2.23857 52 -8.02832e-06 49.7614 -7.90762e-06 47C-7.78691e-06 44.2386 2.23857 42 4.99999 42C7.76142 42 9.99999 44.2386 9.99999 47C9.99999 49.7614 7.76142 52 4.99999 52ZM-8.56329e-06 62C-8.68399e-06 64.7614 2.23857 67 4.99999 67C7.76141 67 9.99999 64.7614 9.99999 62C9.99999 59.2386 7.76142 57 4.99999 57C2.23857 57 -8.44258e-06 59.2386 -8.56329e-06 62ZM4.99999 82C2.23857 82 -9.33966e-06 79.7614 -9.21896e-06 77C-9.09825e-06 74.2386 2.23857 72 4.99999 72C7.76141 72 9.99999 74.2386 9.99999 77C9.99999 79.7614 7.76141 82 4.99999 82Z" fill="#FBFBFC"/>
</svg>
