<svg width="38" height="22" viewBox="0 0 38 22" fill="none" xmlns="http://www.w3.org/2000/svg">
<g clip-path="url(#clip0)">
<path d="M34.9334 1.87109C35.7803 1.87109 36.5463 2.21392 37.1015 2.76848C37.6568 3.32305 38 4.08823 38 4.93409C38 5.77994 37.6568 6.54513 37.1015 7.09969C36.5463 7.65426 35.7803 7.99708 34.9334 7.99708C34.0866 7.99708 33.3205 7.65426 32.7653 7.09969C32.2101 6.54513 31.8669 5.77994 31.8669 4.93409C31.8669 4.08823 32.2101 3.32305 32.7653 2.76848C33.3194 2.21392 34.0866 1.87109 34.9334 1.87109Z" fill="white"/>
<path d="M23.6296 4.66406C24.1927 4.93854 25.6261 5.45501 27.1785 6.01406C28.4325 6.46556 29.7616 6.94394 30.807 7.35958C31.5327 7.64751 32.227 8.01274 32.836 8.50344C33.4709 9.01544 34.0126 9.65739 34.4041 10.4831L34.6329 10.9659L34.6351 10.9648C34.6452 10.985 34.6531 11.0063 34.662 11.0264L37.6153 17.577C38.0427 18.5248 37.8396 19.4088 37.3405 20.0339C37.133 20.2938 36.8728 20.5056 36.5857 20.6568C36.2929 20.8103 35.9676 20.9022 35.6356 20.919C34.8852 20.9548 34.127 20.6199 33.6402 19.7628L31.8602 16.6259C31.047 18.0005 29.8547 19.8771 28.7106 20.9492C28.244 21.3873 27.7617 21.6091 27.1493 21.72C26.6345 21.8141 26.0602 21.8164 25.2986 21.8153C24.5628 21.8141 23.6543 21.8052 22.8052 21.7973C21.9068 21.7884 21.0756 21.7805 20.6034 21.7828C19.5435 21.7884 18.8155 21.3189 18.433 20.677C18.2491 20.3689 18.1504 20.0261 18.1358 19.6777C18.1212 19.336 18.1874 18.9898 18.3332 18.6682C18.663 17.94 19.3909 17.3294 20.5058 17.2028L22.527 16.9732L21.8462 15.7957L15.9161 19.0895C15.067 19.5611 14.2549 19.4771 13.6336 19.0884C13.3408 18.9057 13.0974 18.657 12.9157 18.3669C12.7407 18.0868 12.623 17.7608 12.5792 17.4179C12.4794 16.6438 12.7519 15.8002 13.5685 15.1963C14.6296 14.4121 16.0641 13.3948 17.575 12.41C18.7348 11.6549 19.9349 10.92 21.042 10.3273C21.6252 10.0148 22.2691 9.78623 22.9095 9.81087C23.6543 9.84 24.3329 10.1783 24.8275 11.0332L24.8286 11.032L24.8298 11.0332L24.832 11.032C24.8421 11.0488 24.8511 11.0668 24.86 11.0847L25.9761 13.015L26.879 11.5743L21.5893 8.7768C20.655 8.28274 20.2983 7.40664 20.3623 6.56639C20.3858 6.25157 20.4733 5.94012 20.6124 5.65667C20.7548 5.36875 20.9523 5.10883 21.1979 4.90269C21.8047 4.38622 22.6639 4.19128 23.6296 4.66406Z" fill="white"/>
<path d="M13.5842 0.160488C13.37 -0.053496 13.0223 -0.053496 12.8069 0.160488C12.5927 0.374472 12.5927 0.721775 12.8069 0.936879L14.8595 2.98709C15.0738 3.20108 15.4215 3.20108 15.6368 2.98709C15.8511 2.77311 15.8511 2.4258 15.6368 2.2107L13.5842 0.160488ZM17.6894 4.26203C17.4752 4.04805 17.1275 4.04805 16.9121 4.26203C16.6979 4.47602 16.6979 4.82332 16.9121 5.03842L18.9647 7.08863C19.179 7.30262 19.5267 7.30262 19.742 7.08863C19.9563 6.87465 19.9563 6.52735 19.742 6.31224L17.6894 4.26203Z" fill="white"/>
<path fill-rule="evenodd" clip-rule="evenodd" d="M6.6143 13.3605L6.60309 13.3492C6.28566 13.0266 5.85271 12.8574 5.40069 12.8574C4.94643 12.8574 4.5146 13.0333 4.19381 13.3548L0.498008 17.0464C0.176097 17.3679 0 17.7981 0 18.2518C0 18.7033 0.178341 19.1313 0.494643 19.4539C0.496886 19.4562 0.500251 19.4596 0.502494 19.4618C0.826648 19.7755 1.25287 19.9547 1.70489 19.9547C2.15915 19.9547 2.59099 19.7777 2.91177 19.4573L6.60869 15.7647C6.9306 15.4432 7.1067 15.0129 7.1067 14.5592C7.1067 14.1088 6.93061 13.682 6.6143 13.3605Z" fill="white"/>
<path d="M7.58454 20.5524C7.3804 20.6734 7.31198 20.9367 7.43312 21.1406C7.55425 21.3445 7.81784 21.4128 8.02198 21.2918L11.6864 19.1318C11.8905 19.0108 11.9589 18.7475 11.8378 18.5436C11.7167 18.3397 11.4531 18.2714 11.2489 18.3924L7.58454 20.5524Z" fill="white"/>
<path d="M9.27937 21.012C9.04271 21.0041 8.84305 21.189 8.8352 21.4254C8.82735 21.6618 9.01242 21.8612 9.24909 21.869L12.725 22.0001C12.9617 22.0079 13.1614 21.8231 13.1692 21.5867C13.1771 21.3503 12.992 21.1509 12.7553 21.143L9.27937 21.012Z" fill="white"/>
<path d="M17.7252 2.25642C17.2115 1.7433 16.3781 1.7433 15.8644 2.25642L5.68332 12.4257C6.16899 12.4391 6.63335 12.6274 6.97657 12.9758L6.98891 12.9881C7.33325 13.3376 7.52729 13.8003 7.53851 14.2899L17.7252 4.11505C18.2401 3.60194 18.2401 2.76953 17.7252 2.25642Z" fill="white"/>
</g>
<defs>
<clipPath id="clip0">
<rect width="38" height="22" fill="white"/>
</clipPath>
</defs>
</svg>
