<svg width="19" height="17" viewBox="0 0 19 17" fill="none" xmlns="http://www.w3.org/2000/svg">
<path d="M9.35461 0C4.41723 0 0.414062 3.80728 0.414062 8.5C0.414062 13.1955 4.41723 17 9.35461 17C14.292 17 18.2952 13.1955 18.2952 8.5C18.2952 3.80728 14.292 0 9.35461 0ZM9.35461 3.77016C10.1908 3.77016 10.8687 4.41465 10.8687 5.20968C10.8687 6.0047 10.1908 6.64919 9.35461 6.64919C8.51838 6.64919 7.84049 6.0047 7.84049 5.20968C7.84049 4.41465 8.51838 3.77016 9.35461 3.77016ZM11.3734 12.4758C11.3734 12.7029 11.1797 12.8871 10.9408 12.8871H7.76838C7.52948 12.8871 7.33578 12.7029 7.33578 12.4758V11.6532C7.33578 11.4261 7.52948 11.2419 7.76838 11.2419H8.20099V9.04839H7.76838C7.52948 9.04839 7.33578 8.86423 7.33578 8.6371V7.81452C7.33578 7.58738 7.52948 7.40323 7.76838 7.40323H10.0756C10.3145 7.40323 10.5082 7.58738 10.5082 7.81452V11.2419H10.9408C11.1797 11.2419 11.3734 11.4261 11.3734 11.6532V12.4758Z" fill="#5F59F7"/>
</svg>
