<svg width="14" height="18" viewBox="0 0 14 18" fill="none" xmlns="http://www.w3.org/2000/svg">
<path d="M9.24805 3.12109C9.76367 2.49805 10.1289 1.64941 10.1289 0.790039C10.1289 0.671875 10.1182 0.553711 10.0967 0.457031C9.25879 0.489258 8.24902 1.01562 7.64746 1.72461C7.1748 2.26172 6.73438 3.12109 6.73438 3.98047C6.73438 4.10938 6.75586 4.23828 6.7666 4.28125C6.82031 4.29199 6.90625 4.30273 6.99219 4.30273C7.74414 4.30273 8.68945 3.79785 9.24805 3.12109ZM9.83887 4.48535C8.58203 4.48535 7.56152 5.24805 6.90625 5.24805C6.20801 5.24805 5.29492 4.52832 4.19922 4.52832C2.12598 4.52832 0.0205078 6.24707 0.0205078 9.48047C0.0205078 11.5 0.793945 13.627 1.76074 15.002C2.58789 16.1621 3.30762 17.1182 4.34961 17.1182C5.38086 17.1182 5.83203 16.4307 7.11035 16.4307C8.41016 16.4307 8.7002 17.0967 9.83887 17.0967C10.9668 17.0967 11.7188 16.0654 12.4277 15.0449C13.2227 13.874 13.5557 12.7354 13.5664 12.6816C13.502 12.6602 11.3428 11.7793 11.3428 9.30859C11.3428 7.1709 13.04 6.21484 13.1367 6.13965C12.0195 4.52832 10.3115 4.48535 9.83887 4.48535Z" fill="black"/>
</svg>
