<svg width="16" height="17" viewBox="0 0 16 17" fill="none" xmlns="http://www.w3.org/2000/svg">
<mask id="path-1-inside-1_25_663" fill="white">
<path fill-rule="evenodd" clip-rule="evenodd" d="M9.98617 3.83331H11C11.5523 3.83331 12 4.28103 12 4.83331V13.5C12 14.0523 11.5523 14.5 11 14.5H5C4.44772 14.5 4 14.0523 4 13.5V4.83331C4 4.28103 4.44772 3.83331 5 3.83331H6.01383C6.09318 3.36037 6.50451 3 7 3H9C9.49549 3 9.90682 3.36037 9.98617 3.83331Z"/>
</mask>
<path d="M9.98617 3.83331L9.29582 3.94915L9.39384 4.53331H9.98617V3.83331ZM6.01383 3.83331V4.53331H6.60616L6.70418 3.94915L6.01383 3.83331ZM9.98617 4.53331H11V3.13331H9.98617V4.53331ZM11 4.53331C11.1657 4.53331 11.3 4.66763 11.3 4.83331H12.7C12.7 3.89443 11.9389 3.13331 11 3.13331V4.53331ZM11.3 4.83331V13.5H12.7V4.83331H11.3ZM11.3 13.5C11.3 13.6657 11.1657 13.8 11 13.8V15.2C11.9389 15.2 12.7 14.4389 12.7 13.5H11.3ZM11 13.8H5V15.2H11V13.8ZM5 13.8C4.83431 13.8 4.7 13.6657 4.7 13.5H3.3C3.3 14.4389 4.06112 15.2 5 15.2V13.8ZM4.7 13.5V4.83331H3.3V13.5H4.7ZM4.7 4.83331C4.7 4.66763 4.83432 4.53331 5 4.53331V3.13331C4.06111 3.13331 3.3 3.89443 3.3 4.83331H4.7ZM5 4.53331H6.01383V3.13331H5V4.53331ZM6.70418 3.94915C6.7279 3.80779 6.85205 3.7 7 3.7V2.3C6.15697 2.3 5.45847 2.91295 5.32348 3.71748L6.70418 3.94915ZM7 3.7H9V2.3H7V3.7ZM9 3.7C9.14795 3.7 9.2721 3.80779 9.29582 3.94915L10.6765 3.71748C10.5415 2.91295 9.84303 2.3 9 2.3V3.7Z" fill="white" mask="url(#path-1-inside-1_25_663)"/>
<rect x="5.33333" y="11.8333" width="5.33333" height="1.33333" rx="0.666667" fill="white"/>
</svg>
