<svg width="16" height="17" viewBox="0 0 16 17" fill="none" xmlns="http://www.w3.org/2000/svg">
<path d="M4.24446 11.2856C3.22554 11.2856 2.39474 12.1112 2.39474 13.1354C2.39474 14.1595 3.22032 14.9851 4.24446 14.9851C5.2686 14.9851 6.09418 14.1595 6.09418 13.1354C6.09418 12.1112 5.26337 11.2856 4.24446 11.2856ZM4.24446 14.1909C3.66446 14.1909 3.18897 13.7154 3.18897 13.1354C3.18897 12.5554 3.66446 12.0799 4.24446 12.0799C4.82446 12.0799 5.29995 12.5554 5.29995 13.1354C5.29995 13.7154 4.82446 14.1909 4.24446 14.1909Z" fill="white"/>
<path d="M12.689 11.1549C12.804 11.1549 12.9137 11.1027 12.9921 11.0191C13.0652 10.9302 13.1018 10.8153 13.0809 10.7003L12.0254 3.83441C11.9941 3.64108 11.8321 3.5 11.6335 3.5H9.10974C8.89028 3.5 8.71262 3.67766 8.71262 3.89712C8.71262 4.11657 8.89028 4.29423 9.10974 4.29423H11.2939L11.4454 5.26612L10.6668 5.65801C10.5571 5.71026 10.4787 5.81476 10.4578 5.93494L9.92487 8.56845C9.90397 8.6834 9.9301 8.80358 10.0085 8.89763C10.0816 8.99169 10.1966 9.04394 10.3168 9.04394H12.0306L12.2396 10.4025C11.0535 10.6011 10.1234 11.5468 9.951 12.7434H6.98831C6.79497 11.4005 5.6402 10.3659 4.24507 10.3659C3.40382 10.3659 2.62004 10.7421 2.08706 11.3953C1.95121 11.5677 1.97734 11.8133 2.14454 11.9544C2.31175 12.0902 2.56256 12.0641 2.70364 11.8969C3.07985 11.4266 3.64418 11.1601 4.24507 11.1601C5.33714 11.1601 6.22543 12.0484 6.22543 13.1405C6.22543 13.36 6.40308 13.5376 6.62254 13.5376H10.3168C10.5362 13.5376 10.7139 13.36 10.7139 13.1405C10.7087 12.0432 11.5969 11.1549 12.689 11.1549ZM10.7975 8.24971L11.1946 6.27458L11.5708 6.08648L11.9052 8.24971H10.7975Z" fill="white"/>
<path d="M12.6884 11.2856C11.6695 11.2856 10.8386 12.1112 10.8386 13.1354C10.8386 14.1595 11.6642 14.9851 12.6884 14.9851C13.7125 14.9851 14.5381 14.1543 14.5381 13.1354C14.5381 12.1165 13.7125 11.2856 12.6884 11.2856ZM12.6884 14.1909C12.1084 14.1909 11.6329 13.7154 11.6329 13.1354C11.6329 12.5554 12.1084 12.0799 12.6884 12.0799C13.2684 12.0799 13.7439 12.5554 13.7439 13.1354C13.7439 13.7154 13.2736 14.1909 12.6884 14.1909Z" fill="white"/>
<circle cx="5" cy="5.5" r="3" stroke="white" stroke-linecap="round"/>
<path d="M5 3.89282V5.29286C5 5.42547 5.05268 5.55264 5.14645 5.64641L5.85714 6.35711" stroke="white" stroke-linecap="round"/>
</svg>
