<svg width="16" height="17" viewBox="0 0 16 17" fill="none" xmlns="http://www.w3.org/2000/svg">
<path d="M4.2445 11.2855C3.22558 11.2855 2.39478 12.1111 2.39478 13.1352C2.39478 14.1594 3.22036 14.985 4.2445 14.985C5.26864 14.985 6.09422 14.1594 6.09422 13.1352C6.09422 12.1111 5.26341 11.2855 4.2445 11.2855ZM4.2445 14.1907C3.6645 14.1907 3.18901 13.7152 3.18901 13.1352C3.18901 12.5552 3.6645 12.0798 4.2445 12.0798C4.8245 12.0798 5.29999 12.5552 5.29999 13.1352C5.29999 13.7152 4.8245 14.1907 4.2445 14.1907Z" fill="#2BCE1F"/>
<path d="M12.689 11.1549C12.804 11.1549 12.9137 11.1027 12.9921 11.0191C13.0652 10.9302 13.1018 10.8153 13.0809 10.7003L12.0254 3.83441C11.9941 3.64108 11.8321 3.5 11.6335 3.5H9.10974C8.89028 3.5 8.71262 3.67766 8.71262 3.89712C8.71262 4.11657 8.89028 4.29423 9.10974 4.29423H11.2939L11.4454 5.26612L10.6668 5.65801C10.5571 5.71026 10.4787 5.81476 10.4578 5.93494L9.92487 8.56845C9.90397 8.6834 9.9301 8.80358 10.0085 8.89763C10.0816 8.99169 10.1966 9.04394 10.3168 9.04394H12.0306L12.2396 10.4025C11.0535 10.6011 10.1234 11.5468 9.951 12.7434H6.98831C6.79497 11.4005 5.6402 10.3659 4.24507 10.3659C3.40382 10.3659 2.62004 10.7421 2.08706 11.3953C1.95121 11.5677 1.97734 11.8133 2.14454 11.9544C2.31175 12.0902 2.56256 12.0641 2.70364 11.8969C3.07985 11.4266 3.64418 11.1601 4.24507 11.1601C5.33714 11.1601 6.22543 12.0484 6.22543 13.1405C6.22543 13.36 6.40308 13.5376 6.62254 13.5376H10.3168C10.5362 13.5376 10.7139 13.36 10.7139 13.1405C10.7087 12.0432 11.5969 11.1549 12.689 11.1549ZM10.7975 8.24971L11.1946 6.27458L11.5708 6.08648L11.9052 8.24971H10.7975Z" fill="#2BCE1F"/>
<path d="M12.6883 11.2855C11.6694 11.2855 10.8386 12.1111 10.8386 13.1352C10.8386 14.1594 11.6642 14.985 12.6883 14.985C13.7125 14.985 14.5381 14.1542 14.5381 13.1352C14.5381 12.1163 13.7125 11.2855 12.6883 11.2855ZM12.6883 14.1907C12.1083 14.1907 11.6329 13.7152 11.6329 13.1352C11.6329 12.5552 12.1083 12.0798 12.6883 12.0798C13.2683 12.0798 13.7438 12.5552 13.7438 13.1352C13.7438 13.7152 13.2736 14.1907 12.6883 14.1907Z" fill="#2BCE1F"/>
<circle cx="5" cy="5.5" r="3" stroke="#2BCE1F" stroke-linecap="round"/>
<path d="M5 3.89282V5.29286C5 5.42547 5.05268 5.55264 5.14645 5.64641L5.85714 6.35711" stroke="#2BCE1F" stroke-linecap="round"/>
</svg>
