<svg width="24" height="24" viewBox="0 0 24 24" fill="none" xmlns="http://www.w3.org/2000/svg">
<path d="M12.752 4.99957C12.752 4.58536 12.4163 4.24957 12.002 4.24957C11.5878 4.24957 11.252 4.58536 11.252 4.99957V13.6894L8.03228 10.4697C7.73939 10.1768 7.26452 10.1768 6.97162 10.4697C6.67873 10.7625 6.67873 11.2374 6.97162 11.5303L10.7646 15.3233C11.448 16.0067 12.556 16.0067 13.2394 15.3233L17.0304 11.5323C17.3233 11.2394 17.3233 10.7645 17.0304 10.4716C16.7375 10.1787 16.2627 10.1787 15.9698 10.4716L12.752 13.6893V4.99957Z" fill="white"/>
<path fill-rule="evenodd" clip-rule="evenodd" d="M4 14.25C4.41421 14.25 4.75 14.5858 4.75 15V17C4.75 17.6904 5.30964 18.25 6 18.25H18C18.6904 18.25 19.25 17.6904 19.25 17V15C19.25 14.5858 19.5858 14.25 20 14.25C20.4142 14.25 20.75 14.5858 20.75 15V17C20.75 18.5188 19.5188 19.75 18 19.75H6C4.48122 19.75 3.25 18.5188 3.25 17V15C3.25 14.5858 3.58579 14.25 4 14.25Z" fill="white"/>
</svg>
