<svg width="24" height="24" viewBox="0 0 24 24" fill="none" xmlns="http://www.w3.org/2000/svg">
<path d="M4.81815 10.1454L4.81811 10.1415L4.80867 8.99235C4.80867 8.99172 4.80867 8.99108 4.80867 8.99045C4.80322 7.00797 5.59475 5.47307 6.86366 4.42021C8.14737 3.35506 9.96367 2.75 12.0293 2.75C14.0908 2.75 15.9043 3.35173 17.1876 4.41261C18.4564 5.46156 19.25 6.99171 19.25 8.97067L19.25 10.1716C19.25 10.9009 19.5397 11.6004 20.0555 12.1161L21.0555 13.1161C21.18 13.2407 21.25 13.4096 21.25 13.5858C21.25 13.9526 20.9526 14.25 20.5858 14.25H16H14.5H9.5H8H3.40408C3.04284 14.25 2.75 13.9572 2.75 13.5959C2.75 13.4185 2.82207 13.2487 2.94968 13.1255L3.97863 12.1316L3.45759 11.5922L3.97863 12.1316C4.51721 11.6114 4.82038 10.8941 4.81815 10.1454Z" stroke="#222352" stroke-width="1.5" stroke-linecap="round" stroke-linejoin="round"/>
<path d="M19 15C19 16.8333 18.6 20.5 17 20.5" stroke="#222352" stroke-width="1.5"/>
<path d="M5 15C5 16.8333 5.4 20.5 7 20.5" stroke="#222352" stroke-width="1.5"/>
</svg>
