<svg width="104" height="104" viewBox="0 0 104 104" fill="none" xmlns="http://www.w3.org/2000/svg">
<rect width="104" height="104" rx="4" fill="#EAEDEF"/>
<rect x="21" y="26" width="62" height="52" rx="4" fill="#EAEDEF"/>
<path d="M36 44C36 41.7909 37.7909 40 40 40C42.2091 40 44 41.7909 44 44C44 46.2091 42.2091 48 40 48C38.9391 48 37.9217 47.5786 37.1716 46.8284C36.4214 46.0783 36 45.0609 36 44Z" fill="white"/>
<path d="M71.8008 63.0879C71.5075 63.6497 70.9366 64.0003 70.3153 64H41.684C40.9721 63.9999 40.3373 63.5407 40.098 62.8531C39.8588 62.1655 40.0669 61.3979 40.6179 60.9356L59.144 45.3888C59.5134 45.0836 59.9897 44.9491 60.4594 45.0174C60.9293 45.0895 61.3477 45.3618 61.6114 45.7671L71.7166 61.3139C72.0616 61.844 72.094 62.5259 71.8008 63.0879Z" fill="white"/>
</svg>
