<svg width="16" height="16" viewBox="0 0 16 16" fill="none" xmlns="http://www.w3.org/2000/svg">
<circle cx="8" cy="8" r="7.5" fill="white" stroke="#646586"/>
<path d="M7.61081 6.76H8.37881V11H7.61081V6.76ZM7.99481 5.944C7.84548 5.944 7.72015 5.896 7.61881 5.8C7.52281 5.704 7.47481 5.58667 7.47481 5.448C7.47481 5.30933 7.52281 5.192 7.61881 5.096C7.72015 4.99467 7.84548 4.944 7.99481 4.944C8.14415 4.944 8.26681 4.992 8.36281 5.088C8.46415 5.17867 8.51481 5.29333 8.51481 5.432C8.51481 5.576 8.46415 5.69867 8.36281 5.8C8.26681 5.896 8.14415 5.944 7.99481 5.944Z" fill="#646586"/>
</svg>
