<svg width="32" height="32" viewBox="0 0 32 32" fill="none" xmlns="http://www.w3.org/2000/svg">
<rect opacity="0.2" width="32" height="32" rx="12" fill="#F77777"/>
<path fill-rule="evenodd" clip-rule="evenodd" d="M24.0592 13.2569H23.8457L21.1996 8.60928C20.9946 8.24994 20.6636 7.9931 20.2675 7.88645C19.8732 7.78053 19.4609 7.83616 19.1081 8.04267L7.87451 14.6186C7.1455 15.0452 6.89457 15.9932 7.31476 16.7311L7.50535 17.0659L7.50549 17.0662L7.82399 17.6253L9.4222 20.4316V23.3274C9.4222 24.1819 10.1133 24.8767 10.963 24.8767H24.0591C24.9089 24.8767 25.5999 24.1819 25.5999 23.3274V14.8062C25.6 13.9517 24.9089 13.2569 24.0592 13.2569ZM9.42227 18.8719L9.12808 18.3551L9.42227 18.1828V18.8719ZM9.42227 15.4996V14.8062C9.42227 14.7461 9.43048 14.6882 9.43869 14.6302L9.44336 14.5968L8.26256 15.288C7.89965 15.5007 7.77485 15.9728 7.98292 16.3422L9.42227 15.4996ZM21.6774 11.0081L22.9577 13.2569H17.8363L21.6774 11.0081ZM20.0682 8.63466C19.8738 8.58168 19.6706 8.61004 19.4961 8.71219L11.7324 13.2569H13.2531L20.5317 8.99579L20.5309 8.99437C20.429 8.81546 20.265 8.68761 20.0682 8.63466ZM15.6223 20.3872C15.6223 20.6013 15.4501 20.7745 15.2371 20.7745H11.3852C11.1723 20.7745 11 20.6013 11 20.3872C11 20.1731 11.1723 19.9998 11.3852 19.9998H15.2371C15.4501 19.9998 15.6223 20.1731 15.6223 20.3872ZM11.3852 23.0984H16.7779C16.9908 23.0984 17.1631 22.9252 17.1631 22.7111C17.1631 22.497 16.9908 22.3237 16.7779 22.3237H11.3852C11.1723 22.3237 11 22.497 11 22.7111C11 22.9252 11.1723 23.0984 11.3852 23.0984ZM11.8991 15.3747C11.9248 15.1677 12.1159 14.9998 12.3257 14.9998C12.5354 14.9998 12.6846 15.1677 12.6589 15.3747L12.6121 15.7497H12.9919H12.997C13.6235 15.7524 14.0684 16.255 13.9913 16.8747C13.914 17.496 13.3413 17.9998 12.7121 17.9998C12.0844 17.9998 11.6377 17.4987 11.712 16.8799L11.7126 16.8747L11.7594 16.4998H11L11.0932 15.75H11.8527L11.8991 15.3747ZM12.8054 17.2497C12.5956 17.2497 12.4464 17.0818 12.4721 16.8747L12.5189 16.4998H12.8986C13.1083 16.4998 13.2575 16.6677 13.2319 16.8747C13.2059 17.0818 13.0151 17.2497 12.8054 17.2497ZM20.08 23.0478V21.1438H21.072C21.4186 21.1438 21.7386 21.1012 22.032 21.0158C22.3253 20.9251 22.5786 20.7918 22.792 20.6158C23.0053 20.4345 23.1706 20.2052 23.288 19.9278C23.4106 19.6505 23.472 19.3225 23.472 18.9438V18.8078C23.472 18.4291 23.4106 18.1012 23.288 17.8238C23.1706 17.5465 23.0053 17.3198 22.792 17.1438C22.5786 16.9625 22.3253 16.8292 22.032 16.7438C21.7386 16.6531 21.4186 16.6078 21.072 16.6078H19.68C19.44 16.6078 19.24 16.6318 19.08 16.6798C18.92 16.7225 18.792 16.7945 18.696 16.8958C18.6 16.9972 18.5306 17.1278 18.488 17.2878C18.4506 17.4478 18.432 17.6425 18.432 17.8718V23.0478H20.08ZM20.992 19.7518H20.08V18.2318C20.08 18.1358 20.096 18.0745 20.128 18.0478C20.16 18.0158 20.2213 17.9998 20.312 17.9998H20.992C21.1253 17.9998 21.2426 18.0238 21.344 18.0718C21.4506 18.1145 21.5386 18.1758 21.608 18.2558C21.6826 18.3358 21.7386 18.4265 21.776 18.5278C21.8133 18.6292 21.832 18.7358 21.832 18.8478V18.9038C21.832 19.0158 21.8133 19.1225 21.776 19.2238C21.7386 19.3252 21.6826 19.4158 21.608 19.4958C21.5386 19.5758 21.4506 19.6398 21.344 19.6878C21.2426 19.7305 21.1253 19.7518 20.992 19.7518Z" fill="#F77777"/>
</svg>
