<svg width="24" height="24" viewBox="0 0 24 24" fill="none" xmlns="http://www.w3.org/2000/svg">
<path d="M19.1818 3.81818C19.1818 1.70727 17.4745 0 15.3636 0H8.81818C6.70727 0 5 1.70727 5 3.81818V20.1818C5 22.2927 6.70727 24 8.81818 24H15.3636C17.4745 24 19.1818 22.2927 19.1818 20.1818V3.81818ZM6.63636 4.90909H17.5455V18H6.63636V4.90909ZM8.81818 1.63636H15.3636C16.3782 1.63636 17.2236 2.33455 17.4691 3.27273H6.71273C6.95818 2.33455 7.80364 1.63636 8.81818 1.63636ZM15.3636 22.3636H8.81818C7.61273 22.3636 6.63636 21.3873 6.63636 20.1818V19.6364H17.5455V20.1818C17.5455 21.3873 16.5691 22.3636 15.3636 22.3636Z" fill="#111229"/>
<path d="M11.8182 21.818C12.2701 21.818 12.6364 21.4517 12.6364 20.9998C12.6364 20.548 12.2701 20.1816 11.8182 20.1816C11.3663 20.1816 11 20.548 11 20.9998C11 21.4517 11.3663 21.818 11.8182 21.818Z" fill="#111229"/>
</svg>
