<svg width="64" height="64" viewBox="0 0 64 64" fill="none" xmlns="http://www.w3.org/2000/svg">
<path d="M0.680908 56.8976C0.680908 58.3023 1.09654 59.6755 1.87524 60.8435C2.65393 62.0114 3.76073 62.9218 5.05566 63.4593C6.35059 63.9969 7.77549 64.1375 9.15018 63.8635C10.5249 63.5895 11.7876 62.913 12.7787 61.9197C13.7698 60.9264 14.4447 59.6609 14.7182 58.2832C14.9916 56.9055 14.8513 55.4774 14.3149 54.1796C13.7785 52.8818 12.8702 51.7726 11.7048 50.9922C10.5394 50.2118 9.16925 49.7952 7.76763 49.7952C5.88812 49.7952 4.08558 50.5435 2.75656 51.8755C1.42754 53.2074 0.680908 55.0139 0.680908 56.8976ZM5.7624 56.8976C5.7624 56.4998 5.88011 56.1109 6.10065 55.7801C6.32119 55.4493 6.63465 55.1915 7.00139 55.0392C7.36813 54.887 7.77168 54.8472 8.16101 54.9248C8.55034 55.0024 8.90797 55.194 9.18866 55.4753C9.46935 55.7566 9.6605 56.115 9.73794 56.5052C9.81538 56.8954 9.77564 57.2998 9.62373 57.6674C9.47182 58.0349 9.21457 58.3491 8.88451 58.5701C8.55445 58.7911 8.16641 58.9091 7.76945 58.9091C7.50588 58.9091 7.2449 58.8571 7.00139 58.756C6.75788 58.6549 6.53663 58.5067 6.35025 58.3199C6.16388 58.1331 6.01604 57.9114 5.91518 57.6674C5.81432 57.4233 5.7624 57.1618 5.7624 56.8976Z" fill="#58595B"/>
<path d="M49.1456 56.8976C49.1456 58.3023 49.5613 59.6755 50.34 60.8435C51.1187 62.0114 52.2255 62.9218 53.5204 63.4593C54.8153 63.9969 56.2402 64.1375 57.6149 63.8635C58.9896 63.5895 60.2523 62.913 61.2434 61.9197C62.2345 60.9264 62.9095 59.6609 63.1829 58.2832C63.4564 56.9055 63.316 55.4774 62.7796 54.1796C62.2433 52.8818 61.3349 51.7726 60.1695 50.9922C59.0041 50.2118 57.634 49.7952 56.2324 49.7952C55.3017 49.7952 54.3802 49.9789 53.5204 50.3359C52.6606 50.6928 51.8793 51.2159 51.2213 51.8755C50.5632 52.535 50.0412 53.3179 49.6851 54.1796C49.3289 55.0413 49.1456 55.9649 49.1456 56.8976ZM54.229 56.8976C54.229 56.4998 54.3467 56.1109 54.5672 55.7801C54.7877 55.4493 55.1012 55.1915 55.4679 55.0392C55.8347 54.887 56.2382 54.8472 56.6276 54.9248C57.0169 55.0024 57.3745 55.194 57.6552 55.4753C57.9359 55.7566 58.1271 56.115 58.2045 56.5052C58.2819 56.8954 58.2422 57.2998 58.0903 57.6674C57.9384 58.0349 57.6811 58.3491 57.3511 58.5701C57.021 58.7911 56.633 58.9091 56.236 58.9091C55.7037 58.9091 55.1932 58.6972 54.8168 58.3199C54.4404 57.9427 54.229 57.4311 54.229 56.8976Z" fill="#58595B"/>
<path d="M13.9219 55.3799C13.9219 55.3799 11.393 49.5978 4.1202 51.357C3.59472 51.4978 1.88142 51.9055 2.19707 51.357C2.51273 50.8084 4.88835 48.1861 9.31299 48.7969C13.7376 49.4076 16.23 53.4763 16.23 55.3799H13.9219Z" fill="#231F20"/>
<path d="M55.6667 50.9198C54.0245 50.9509 52.085 51.4208 49.9794 53.0501C49.5579 53.3939 48.1548 54.4655 48.2242 53.8401C48.2935 53.2147 49.3864 49.8409 53.6724 48.5865C55.6588 48.0224 57.783 48.2118 59.6388 49.1186C59.6388 49.1186 60.4197 50.8302 55.6667 50.9198Z" fill="#231F20"/>
<path d="M40.8877 59.4796H44.0169L44.4438 55.3616H40.8877V59.4796Z" fill="#EC2785"/>
<path d="M9.77288 59.4961H40.8877V55.3799H6.46307L5.06543 58.5068L8.93357 58.505L9.77288 59.4961Z" fill="#EC2785"/>
<path d="M51.9208 43.3475H55.6029L53.9717 35.2632H50.2878L51.9208 43.3475Z" fill="#EC2785"/>
<path d="M55.1997 57.2286H57.3144L54.8439 43.3475H52.7274L55.1997 57.2286Z" fill="#231F20"/>
<path d="M49.1329 29.6566H52.8168L48.3283 5.88818H44.6462L49.1329 29.6566Z" fill="#EC2785"/>
<path d="M52.992 40.8699L52.1508 36.1831L39.9279 55.3818H43.7504L52.992 40.8699Z" fill="#EC2785"/>
<path d="M50.2532 35.2632H53.9371L52.8186 29.6567H49.1348L50.2532 35.2632Z" fill="#231F20"/>
<path d="M44.3087 3.64628L53.1635 2.21995L52.8496 0L43.9967 1.42633L44.3087 3.64628Z" fill="#404041"/>
<path d="M48.3283 5.88998C48.3283 5.88998 48.1678 4.81475 49.4359 4.65383C50.9777 4.45634 52.6435 4.18936 52.6435 4.18936C52.6435 4.18936 53.762 4.18021 53.1398 2.04987C52.6946 2.11387 44.2869 3.45242 44.2869 3.45242L44.681 6.19536L48.3283 5.88998Z" fill="#231F20"/>
<path d="M51.6802 3.96806C52.0006 3.96806 52.2604 3.70771 52.2604 3.38656C52.2604 3.0654 52.0006 2.80505 51.6802 2.80505C51.3598 2.80505 51.1 3.0654 51.1 3.38656C51.1 3.70771 51.3598 3.96806 51.6802 3.96806Z" fill="#575757"/>
<path d="M48.6822 27.3068L52.023 25.4215L51.8351 24.4304L48.4998 26.3176L48.6822 27.3068Z" fill="#231F20"/>
<path d="M49.0472 29.2525L52.388 27.3672L52.1983 26.3779L48.8647 28.2632L49.0472 29.2525Z" fill="#231F20"/>
<path d="M7.76757 57.141C7.9016 57.141 8.01024 57.0321 8.01024 56.8977C8.01024 56.7634 7.9016 56.6545 7.76757 56.6545C7.63355 56.6545 7.5249 56.7634 7.5249 56.8977C7.5249 57.0321 7.63355 57.141 7.76757 57.141Z" fill="#989898"/>
<path d="M56.2324 56.6563C56.2806 56.6559 56.3277 56.6699 56.3679 56.6965C56.4081 56.7231 56.4395 56.761 56.4581 56.8055C56.4767 56.8501 56.4817 56.8991 56.4723 56.9465C56.463 56.9938 56.4399 57.0373 56.4058 57.0714C56.3718 57.1056 56.3284 57.1288 56.2811 57.1381C56.2339 57.1474 56.185 57.1424 56.1405 57.1238C56.0961 57.1052 56.0582 57.0737 56.0317 57.0334C56.0052 56.9932 55.9912 56.9459 55.9916 56.8976C55.9916 56.8336 56.017 56.7722 56.0621 56.727C56.1073 56.6817 56.1686 56.6563 56.2324 56.6563Z" fill="#989898"/>
<path d="M44.1573 2.65885L53.012 1.23069L52.9628 0.848511L44.108 2.27484L44.1573 2.65885Z" fill="#DC5F91"/>
<path d="M46.1389 11.021L47.2701 10.9406C47.3148 10.9394 47.3586 10.9275 47.3978 10.9058C47.428 10.8899 47.4541 10.8674 47.4745 10.84C47.4919 10.815 47.5032 10.7862 47.5073 10.7559C47.512 10.728 47.512 10.6996 47.5073 10.6718C47.5007 10.6425 47.4903 10.6142 47.4763 10.5877C47.46 10.5588 47.439 10.5329 47.4142 10.5109C47.3861 10.4872 47.3539 10.4686 47.3194 10.456C47.2765 10.4417 47.2313 10.4355 47.1862 10.4377L46.0403 10.52L45.9144 9.90375L48.2426 9.73735C48.2901 9.7332 48.3379 9.7388 48.3831 9.75381C48.4233 9.76763 48.4609 9.78802 48.4944 9.81415C48.5257 9.84116 48.5523 9.87332 48.5729 9.90924C48.5941 9.94495 48.6095 9.98385 48.6185 10.0244C48.6248 10.0632 48.6248 10.1027 48.6185 10.1415C48.612 10.1774 48.5983 10.2116 48.5783 10.2421C48.5575 10.2739 48.5293 10.3002 48.4962 10.3188C48.4552 10.339 48.4105 10.3508 48.3649 10.3536L47.8394 10.392C47.898 10.4405 47.948 10.4986 47.9872 10.5639C48.0283 10.6315 48.0573 10.7057 48.0729 10.7833C48.093 10.877 48.0979 10.9733 48.0875 11.0686C48.0789 11.1558 48.046 11.2388 47.9926 11.3081C47.9311 11.3875 47.8508 11.4503 47.7591 11.491C47.6312 11.5426 47.4954 11.5717 47.3577 11.5769L46.2629 11.6556L46.1389 11.021Z" fill="#F1F1F1"/>
<path d="M46.7701 14.0914L46.6478 13.4989L47.6185 13.1112L46.5237 12.8589L46.4033 12.2664L47.852 11.7068C47.8936 11.6893 47.9383 11.6806 47.9834 11.6812C48.0269 11.6795 48.0703 11.6863 48.1111 11.7014C48.1515 11.7161 48.1886 11.7385 48.2206 11.7672C48.2519 11.7965 48.2768 11.832 48.2936 11.8714C48.3289 11.9467 48.3386 12.0315 48.321 12.1128C48.3104 12.1522 48.2894 12.188 48.2602 12.2163C48.2309 12.2447 48.1946 12.2645 48.1549 12.2737L47.2116 12.5773L48.2389 12.7912C48.3131 12.8023 48.3824 12.8354 48.4377 12.8863C48.4827 12.9297 48.5133 12.9859 48.5253 13.0472C48.5388 13.1051 48.5343 13.1657 48.5125 13.2209C48.4962 13.2517 48.4739 13.2788 48.447 13.3008C48.42 13.3228 48.389 13.3392 48.3556 13.349L47.4324 13.7019L48.4815 13.8573C48.5256 13.8608 48.5685 13.8737 48.6072 13.8952C48.6459 13.9166 48.6796 13.9461 48.706 13.9817C48.7533 14.0503 48.7776 14.1323 48.7753 14.2157C48.7757 14.2539 48.7649 14.2915 48.7443 14.3236C48.7246 14.3552 48.6969 14.3811 48.664 14.3986C48.6284 14.4181 48.5893 14.4305 48.549 14.4352C48.5013 14.4432 48.4526 14.4432 48.4049 14.4352L46.7701 14.0914Z" fill="#F1F1F1"/>
<path d="M49.2551 14.5741C49.2983 14.5678 49.3424 14.5717 49.3838 14.5853C49.4253 14.5989 49.4631 14.622 49.4941 14.6527C49.552 14.7121 49.5913 14.7871 49.6073 14.8685C49.6256 14.9444 49.6179 15.0243 49.5854 15.0952C49.5651 15.1301 49.5357 15.1588 49.5003 15.1782C49.4649 15.1975 49.4249 15.2068 49.3847 15.205C49.336 15.2101 49.2868 15.2045 49.2405 15.1885C49.2023 15.1756 49.1674 15.1543 49.1383 15.1263C49.1087 15.0995 49.0845 15.0673 49.0672 15.0312C49.0492 14.9927 49.0357 14.9522 49.027 14.9106C49.0178 14.8704 49.0147 14.8291 49.0179 14.788C49.0179 14.7511 49.0275 14.7148 49.0457 14.6828C49.0639 14.6507 49.0902 14.624 49.1219 14.6052C49.1631 14.5839 49.2088 14.5732 49.2551 14.5741ZM48.5253 14.6289C48.5709 14.6229 48.6172 14.6266 48.6612 14.6399C48.7053 14.6531 48.746 14.6756 48.7807 14.7057C48.8436 14.7616 48.886 14.8369 48.9012 14.9197C48.9202 14.9957 48.9098 15.0761 48.872 15.1446C48.8477 15.1799 48.8148 15.2085 48.7766 15.2277C48.7383 15.2469 48.6958 15.256 48.653 15.2543L47.0346 15.3714L46.9069 14.746L48.5253 14.6289Z" fill="#F1F1F1"/>
<path d="M49.423 15.5286C49.5138 15.5203 49.6041 15.5478 49.6748 15.6054C49.7064 15.6321 49.7335 15.6635 49.7551 15.6987C49.775 15.7342 49.7898 15.7724 49.7989 15.8121C49.8158 15.8858 49.8034 15.9632 49.7642 16.0279C49.7397 16.0623 49.707 16.0902 49.6691 16.109C49.6313 16.1278 49.5894 16.137 49.5471 16.1357L48.4524 16.2144L49.1731 16.7081C49.2073 16.7324 49.238 16.7613 49.2643 16.794C49.2887 16.8271 49.3083 16.8634 49.3227 16.9019C49.3354 16.9383 49.341 16.9768 49.3391 17.0153C49.3381 17.0537 49.3281 17.0913 49.3099 17.125C49.2913 17.1593 49.2643 17.1882 49.2315 17.2091C49.197 17.229 49.1593 17.2426 49.1202 17.2494C49.0797 17.2566 49.0383 17.2566 48.9979 17.2494C48.9567 17.2404 48.918 17.2223 48.8848 17.1963L48.4049 16.8306L47.4798 17.5657L47.3393 16.88L47.9269 16.4375L47.7097 16.2674L47.2208 16.3021L47.0967 15.695L49.423 15.5286Z" fill="#F1F1F1"/>
<path d="M45.9746 48.8097H44.1117L44.4602 48.2611H46.3249L45.9746 48.8097Z" fill="black"/>
<path d="M46.3249 48.2611L47.1515 50.044L46.8012 50.5908L45.9764 48.8097L46.3249 48.2611Z" fill="black"/>
<path d="M45.1698 50.161H43.2504L43.6007 49.6124H45.5183L45.1698 50.161Z" fill="black"/>
<path d="M45.5184 49.6124L46.3231 51.3441L45.9727 51.8927L45.1699 50.161L45.5184 49.6124Z" fill="black"/>
<path d="M44.3634 51.3807H42.475L42.8235 50.8321H44.7119L44.3634 51.3807Z" fill="black"/>
<path d="M44.7137 50.8321L45.5293 52.5912L45.179 53.138L44.3634 51.3807L44.7137 50.8321Z" fill="black"/>
<path d="M15.0915 57.3638L13.8818 55.4895L14.6573 55.484L15.867 57.3602L15.0915 57.3638Z" fill="#231F20"/>
<path d="M15.867 57.3602L14.619 59.3461L13.8435 59.3516L15.0915 57.3639L15.867 57.3602Z" fill="#231F20"/>
<path d="M13.214 57.4297L11.9696 55.5005L12.7469 55.4968L13.9913 57.426L13.214 57.4297Z" fill="#231F20"/>
<path d="M13.9912 57.426L12.7779 59.3571L12.0024 59.3625L13.2158 57.4315L13.9912 57.426Z" fill="#231F20"/>
<path d="M11.4715 57.4097L10.2454 55.5116L11.0226 55.5061L12.2469 57.406L11.4715 57.4097Z" fill="#231F20"/>
<path d="M12.2468 57.406L11.0152 59.3681L10.2397 59.3718L11.4713 57.4115L12.2468 57.406Z" fill="#231F20"/>
<path d="M38.1617 58.1611L38.1782 58.0222H37.8771C37.8533 58.0268 37.8287 58.0253 37.8057 58.0176C37.7826 58.0099 37.762 57.9963 37.7457 57.9783C37.723 57.9465 37.7132 57.9073 37.7184 57.8686C37.7238 57.8283 37.7424 57.791 37.7713 57.7625C37.8108 57.7318 37.8601 57.7169 37.91 57.7204H38.9664C38.9894 57.7179 39.0128 57.7203 39.0348 57.7276C39.0568 57.7349 39.0771 57.7468 39.0941 57.7625C39.1053 57.7775 39.1133 57.7947 39.1177 57.8129C39.1221 57.8311 39.1228 57.8501 39.1197 57.8686C39.1133 57.9141 39.0901 57.9556 39.0546 57.9848C39.0191 58.0139 38.9739 58.0286 38.9281 58.0258H38.5632L38.5449 58.1648L38.1617 58.1611ZM38.2329 57.6382C38.1829 57.6429 38.1324 57.6372 38.0847 57.6215C38.037 57.6057 37.993 57.5803 37.9556 57.5467C37.9203 57.5048 37.8974 57.4538 37.8894 57.3996C37.8813 57.3454 37.8884 57.2899 37.91 57.2395C37.8953 57.237 37.8813 57.2314 37.8689 57.2231C37.8565 57.2149 37.8459 57.2042 37.8379 57.1916C37.8298 57.1791 37.8244 57.165 37.8221 57.1503C37.8197 57.1355 37.8204 57.1205 37.8242 57.106C37.826 57.0859 37.8318 57.0663 37.8412 57.0484C37.8506 57.0306 37.8634 57.0147 37.8789 57.0018C37.9135 56.9739 37.9569 56.9597 38.0012 56.9616H38.315C38.3267 56.916 38.3555 56.8767 38.3953 56.8519C38.4386 56.8272 38.4879 56.8151 38.5376 56.8171C38.5845 56.8145 38.6311 56.8267 38.6708 56.8519C38.6875 56.8647 38.7008 56.8814 38.7097 56.9005C38.7186 56.9196 38.7228 56.9405 38.7219 56.9616H39.0339C39.0545 56.9596 39.0754 56.9622 39.0949 56.9691C39.1144 56.9761 39.1322 56.9872 39.147 57.0018C39.1598 57.0156 39.1691 57.0323 39.1742 57.0504C39.1792 57.0685 39.1799 57.0876 39.1762 57.106C39.1732 57.1372 39.1605 57.1667 39.1397 57.1901C39.1185 57.2139 39.0904 57.2305 39.0595 57.2377C39.0641 57.2612 39.0641 57.2855 39.0595 57.309C39.0501 57.4009 39.0064 57.4858 38.9372 57.5467C38.8512 57.6128 38.7442 57.6452 38.6361 57.6382H38.2329ZM37.9391 58.5086C37.9166 58.5106 37.8938 58.508 37.8722 58.5011C37.8506 58.4942 37.8305 58.4831 37.8133 58.4684C37.7999 58.4534 37.7902 58.4355 37.7848 58.4162C37.7795 58.3969 37.7786 58.3765 37.7822 58.3568C37.7864 58.3139 37.8074 58.2745 37.8406 58.2471C37.8802 58.2198 37.9277 58.2063 37.9756 58.2087H39.2912C39.342 58.2077 39.3929 58.2126 39.4426 58.2233C39.4747 58.2324 39.5038 58.2501 39.5265 58.2745C39.5465 58.3029 39.5573 58.3367 39.5576 58.3714C39.5627 58.4219 39.5627 58.4727 39.5576 58.5232L39.5229 58.8012H39.1069L39.1361 58.5543C39.1361 58.5232 39.1361 58.5086 39.0959 58.5086H37.9391ZM38.5887 57.3821C38.6163 57.3842 38.6437 57.3757 38.6653 57.3584C38.6822 57.3443 38.6937 57.325 38.6982 57.3035C38.6997 57.2933 38.6988 57.2829 38.6956 57.2731C38.6925 57.2632 38.6871 57.2543 38.6799 57.2468C38.6599 57.2306 38.6344 57.2228 38.6088 57.2249H38.3679C38.3406 57.2233 38.3136 57.231 38.2913 57.2468C38.2823 57.2535 38.2749 57.262 38.2695 57.2717C38.2642 57.2815 38.261 57.2924 38.2603 57.3035C38.2588 57.3135 38.2597 57.3236 38.2629 57.3331C38.266 57.3427 38.2714 57.3513 38.2785 57.3584C38.2878 57.367 38.2987 57.3736 38.3106 57.3777C38.3226 57.3818 38.3353 57.3833 38.3479 57.3821H38.5887ZM39.3003 57.0475C39.3028 57.0176 39.3114 56.9886 39.3255 56.9622C39.3396 56.9358 39.359 56.9125 39.3824 56.8939C39.4264 56.86 39.4802 56.8414 39.5357 56.8409C39.5619 56.841 39.5879 56.8459 39.6123 56.8555C39.6364 56.8638 39.6582 56.8776 39.6762 56.8957C39.6935 56.914 39.7066 56.9358 39.7145 56.9597C39.7211 56.9886 39.7211 57.0186 39.7145 57.0475L39.5795 58.1447H39.1598L39.3003 57.0475Z" fill="#F1F1F1"/>
<path d="M40.9807 57.1299C40.9735 57.1247 40.9655 57.121 40.9569 57.1189H40.9332H40.9077C40.8988 57.121 40.8906 57.1254 40.884 57.1317C40.8765 57.1384 40.8703 57.1465 40.8657 57.1555C40.8636 57.1682 40.8636 57.1812 40.8657 57.1939V57.2597C40.8634 57.2718 40.8634 57.2842 40.8657 57.2963C40.8703 57.3058 40.8765 57.3144 40.884 57.3219L40.9077 57.3347H40.9332H40.9569L40.9807 57.3219C40.9886 57.3155 40.9948 57.3074 40.9989 57.2981C41.0043 57.2873 41.0074 57.2754 41.008 57.2634V57.1884C41.0072 57.1763 41.0041 57.1645 40.9989 57.1536C40.9939 57.145 40.9877 57.137 40.9807 57.1299Z" fill="#F1F1F1"/>
<path d="M41.5644 57.1297C41.5574 57.1234 41.5494 57.1185 41.5406 57.1151C41.5227 57.1102 41.5038 57.1102 41.4859 57.1151C41.4766 57.1185 41.468 57.1234 41.4604 57.1297C41.4528 57.1378 41.4467 57.1471 41.4421 57.1572C41.4399 57.1705 41.4399 57.1841 41.4421 57.1974V57.2925C41.4399 57.3052 41.4399 57.3182 41.4421 57.3309C41.4467 57.341 41.4528 57.3502 41.4604 57.3583C41.467 57.3659 41.476 57.371 41.4859 57.373H41.5133H41.5406C41.55 57.3711 41.5585 57.3659 41.5644 57.3583C41.5725 57.3507 41.5787 57.3413 41.5826 57.3309C41.5857 57.3183 41.5857 57.3051 41.5826 57.2925V57.1974C41.5857 57.1842 41.5857 57.1704 41.5826 57.1572C41.5787 57.1468 41.5725 57.1374 41.5644 57.1297Z" fill="#F1F1F1"/>
<path d="M41.8216 56.3728H41.0097C40.7786 56.3787 40.5571 56.4664 40.3844 56.6204C40.2118 56.7744 40.0991 56.9847 40.0664 57.214L39.9642 58.0552L39.9478 58.1905C39.9473 58.2119 39.9531 58.2329 39.9644 58.2511C39.9757 58.2692 39.9921 58.2836 40.0115 58.2925C40.0309 58.3015 40.0524 58.3045 40.0735 58.3014C40.0946 58.2982 40.1143 58.2889 40.1302 58.2746L40.3766 58.0552H41.6082C41.839 58.0492 42.0603 57.9615 42.2327 57.8074C42.405 57.6534 42.5174 57.4432 42.5496 57.214C42.5655 57.1093 42.5585 57.0024 42.5291 56.9008C42.4997 56.7991 42.4486 56.705 42.3794 56.625C42.3102 56.545 42.2245 56.481 42.1282 56.4375C42.0319 56.394 41.9273 56.3719 41.8216 56.3728ZM41.1812 57.4444C41.1808 57.4691 41.1777 57.4936 41.1721 57.5176C41.1649 57.5438 41.1511 57.5678 41.1319 57.587C41.1095 57.6118 41.0813 57.6307 41.0498 57.6419C41.004 57.6577 40.956 57.6663 40.9075 57.6675H40.8801H40.8437H40.809L40.7834 57.6565C40.7763 57.6528 40.7701 57.6476 40.765 57.6413C40.76 57.635 40.7563 57.6277 40.7542 57.62C40.7488 57.6046 40.7488 57.5878 40.7542 57.5724C40.7602 57.5591 40.7696 57.5477 40.7816 57.5395C40.7953 57.535 40.8099 57.535 40.8236 57.5395H40.8637H40.9075C40.9238 57.5426 40.9405 57.5426 40.9568 57.5395C40.9691 57.5364 40.9805 57.5301 40.9896 57.5212C40.9972 57.5146 41.0034 57.5065 41.0079 57.4974C41.0096 57.4878 41.0096 57.4779 41.0079 57.4682V57.4298C40.993 57.4456 40.975 57.4581 40.955 57.4664C40.9322 57.4748 40.9081 57.4791 40.8838 57.4792C40.8566 57.4789 40.8295 57.4746 40.8035 57.4664C40.7783 57.4591 40.7552 57.4459 40.736 57.428C40.7161 57.4069 40.7006 57.382 40.6904 57.3548C40.6784 57.3183 40.6728 57.2799 40.674 57.2414V57.203C40.6728 57.1646 40.6784 57.1262 40.6904 57.0897C40.7006 57.0619 40.7161 57.0365 40.736 57.0147C40.7552 56.9967 40.7783 56.9836 40.8035 56.9763C40.8293 56.9675 40.8565 56.9631 40.8838 56.9635C40.9069 56.9631 40.9299 56.9675 40.9513 56.9763C40.9728 56.9838 40.9922 56.9964 41.0079 57.0129C41.0141 56.9971 41.0258 56.9842 41.0407 56.9763C41.0556 56.9674 41.0727 56.963 41.09 56.9635C41.112 56.9636 41.1333 56.9713 41.1502 56.9854C41.159 56.9939 41.1658 57.0042 41.1702 57.0155C41.1746 57.0269 41.1765 57.0391 41.1757 57.0513L41.1812 57.4444ZM41.7651 57.2853C41.7658 57.325 41.7577 57.3644 41.7414 57.4005C41.7283 57.4305 41.7075 57.4563 41.6811 57.4755C41.6573 57.4937 41.63 57.5068 41.6009 57.5139C41.5411 57.5298 41.4782 57.5298 41.4184 57.5139C41.3886 57.5071 41.3606 57.494 41.3363 57.4755C41.3112 57.4555 41.2912 57.4298 41.2779 57.4005C41.2608 57.3646 41.2526 57.3251 41.2542 57.2853V57.2049C41.2528 57.1647 41.2603 57.1247 41.2761 57.0878C41.29 57.059 41.3106 57.0339 41.3363 57.0147C41.3601 56.9959 41.3874 56.9823 41.4166 56.9745C41.4458 56.9672 41.4758 56.9635 41.506 56.9635C41.5355 56.9636 41.5649 56.9673 41.5936 56.9745C41.6228 56.9823 41.6501 56.9959 41.6738 57.0147C41.7 57.0333 41.7207 57.0586 41.7341 57.0878C41.7506 57.1246 41.7587 57.1646 41.7578 57.2049L41.7651 57.2853Z" fill="#F1F1F1"/>
<path d="M48.2153 24.7376H45.5022L43.9056 15.9803H46.6188L48.2153 24.7376Z" fill="#3F3F3F"/>
<path d="M44.4967 15.9804H44.0862L43.7815 14.4425H44.192L44.4967 15.9804Z" fill="#252D32"/>
<path d="M43.2834 18.6336C43.1264 17.2951 43.256 15.7572 44.1847 14.4808C44.1519 14.2833 43.8654 13.4696 41.3803 12.206C40.6505 11.9482 40.3987 12.0963 40.0575 12.3578C40.0099 12.3943 39.9529 12.4165 39.8933 12.4218C34.8884 12.8625 33.8502 15.5835 33.8082 15.6987C33.809 15.7029 33.809 15.7073 33.8082 15.7115C32.531 18.8933 35.3701 23.1796 35.4978 23.3679C37.191 25.5623 38.9499 26.6083 40.8731 26.5351C42.1503 26.4876 42.871 26.2114 42.9604 26.1694C43.4111 25.9134 43.8873 24.456 44.0844 23.4959C44.1121 23.3497 44.1475 23.2051 44.1902 23.0626C44.2887 22.7133 44.3617 22.4591 44.1902 21.8026C43.7295 20.7984 43.4238 19.7299 43.2834 18.6336Z" fill="#EC2785"/>
<path d="M42.9384 22.2396C43.138 22.2396 43.2997 22.0775 43.2997 21.8776C43.2997 21.6776 43.138 21.5155 42.9384 21.5155C42.7389 21.5155 42.5771 21.6776 42.5771 21.8776C42.5771 22.0775 42.7389 22.2396 42.9384 22.2396Z" fill="#252D32"/>
<path d="M42.8271 15.0532C43.0266 15.0532 43.1884 14.8911 43.1884 14.6912C43.1884 14.4912 43.0266 14.3291 42.8271 14.3291C42.6276 14.3291 42.4658 14.4912 42.4658 14.6912C42.4658 14.8911 42.6276 15.0532 42.8271 15.0532Z" fill="#252D32"/>
<path d="M41.4931 20.2502H41.3818L41.4092 20.4916C41.4145 20.5085 41.4155 20.5264 41.4121 20.5438C41.4087 20.5611 41.401 20.5773 41.3898 20.591C41.3786 20.6046 41.3641 20.6152 41.3477 20.6218C41.3314 20.6284 41.3136 20.6308 41.2961 20.6288C41.2638 20.6289 41.2327 20.6172 41.2085 20.5958C41.194 20.5821 41.1824 20.5657 41.1742 20.5475C41.1661 20.5293 41.1616 20.5097 41.1611 20.4898L41.0625 19.6413C41.0585 19.6231 41.0583 19.6042 41.0621 19.5859C41.0659 19.5676 41.0735 19.5503 41.0844 19.5352C41.095 19.5244 41.1079 19.5159 41.122 19.5106C41.1362 19.5052 41.1514 19.503 41.1665 19.5041C41.2003 19.5045 41.233 19.5161 41.2596 19.5371C41.275 19.5502 41.2875 19.5665 41.2962 19.5847C41.305 19.603 41.31 19.6229 41.3107 19.6431L41.3453 19.932H41.4566L41.4931 20.2502ZM41.068 20.2502C41.0773 20.2901 41.0779 20.3315 41.0697 20.3716C41.0615 20.4116 41.0447 20.4495 41.0206 20.4825C40.9975 20.5076 40.9692 20.5274 40.9377 20.5404C40.9061 20.5533 40.8721 20.5592 40.8381 20.5574C40.8187 20.5589 40.7992 20.5589 40.7797 20.5574C40.7791 20.5694 40.776 20.5811 40.7705 20.5918C40.7651 20.6025 40.7575 20.612 40.7482 20.6196C40.739 20.6271 40.7282 20.6327 40.7167 20.6358C40.7051 20.639 40.693 20.6397 40.6812 20.6379C40.6482 20.6391 40.6161 20.6273 40.5918 20.605C40.5672 20.5791 40.5524 20.5455 40.5498 20.5099L40.5206 20.2575C40.4831 20.252 40.4488 20.2332 40.4239 20.2045C40.4008 20.1716 40.387 20.1331 40.3838 20.093C40.3775 20.0552 40.3826 20.0163 40.3984 19.9814C40.4074 19.9669 40.4197 19.9547 40.4343 19.9458C40.4489 19.937 40.4653 19.9316 40.4823 19.9302L40.4531 19.6797C40.4471 19.6466 40.4543 19.6124 40.4732 19.5846C40.4835 19.5732 40.4962 19.5643 40.5104 19.5586C40.5247 19.5529 40.54 19.5505 40.5553 19.5517C40.5807 19.5512 40.6057 19.5588 40.6265 19.5736C40.6469 19.5888 40.6622 19.6098 40.6702 19.634C40.6883 19.627 40.7074 19.6233 40.7268 19.623C40.8014 19.6231 40.8734 19.6504 40.9293 19.6998C40.99 19.7625 41.0262 19.8449 41.0315 19.932L41.068 20.2594V20.2502ZM41.7978 20.4057C41.8016 20.4236 41.8016 20.4421 41.7979 20.4601C41.7941 20.478 41.7866 20.495 41.7759 20.5099C41.7657 20.5224 41.7525 20.5321 41.7375 20.5382C41.7225 20.5443 41.7062 20.5465 41.6902 20.5446C41.673 20.5456 41.6557 20.5428 41.6397 20.5365C41.6236 20.5302 41.6091 20.5205 41.5971 20.5081C41.5712 20.4793 41.5558 20.4425 41.5533 20.4038L41.4311 19.3469C41.4267 19.3068 41.4267 19.2663 41.4311 19.2262C41.4344 19.199 41.4459 19.1735 41.4639 19.153C41.4849 19.1343 41.5109 19.1222 41.5387 19.1183C41.5792 19.1119 41.6201 19.1088 41.661 19.1092H41.8854L41.9237 19.4438H41.7249C41.6993 19.4438 41.6884 19.4566 41.692 19.4804L41.7997 20.4057H41.7978ZM40.8363 19.9887C40.8344 19.9666 40.8247 19.9458 40.8089 19.9302C40.8031 19.9239 40.7961 19.9188 40.7882 19.9154C40.7804 19.9119 40.7719 19.9101 40.7633 19.9101C40.7549 19.9096 40.7465 19.9111 40.7389 19.9147C40.7312 19.9182 40.7246 19.9235 40.7195 19.9302C40.7094 19.9473 40.7056 19.9673 40.7086 19.9869L40.7323 20.1807C40.733 20.2024 40.7414 20.2232 40.756 20.2393C40.7618 20.2461 40.7691 20.2517 40.7773 20.2555C40.7855 20.2593 40.7944 20.2612 40.8034 20.2612C40.8115 20.2611 40.8194 20.2593 40.8267 20.2558C40.8339 20.2523 40.8403 20.2473 40.8454 20.2411C40.8514 20.2327 40.8557 20.2232 40.8579 20.2132C40.8601 20.2031 40.8602 20.1927 40.8582 20.1826L40.8363 19.9887ZM40.5024 19.4401C40.4781 19.4405 40.4539 19.436 40.4313 19.4269C40.4088 19.4178 40.3883 19.4043 40.371 19.3871C40.3399 19.3555 40.3206 19.3142 40.3163 19.2701C40.3117 19.249 40.3117 19.2272 40.3163 19.2061C40.3199 19.1864 40.3287 19.1681 40.3418 19.153C40.3547 19.137 40.3709 19.1239 40.3893 19.1146C40.4118 19.1054 40.4361 19.101 40.4604 19.1018H41.3526L41.3928 19.4401H40.5024Z" fill="#F1F1F1"/>
<path d="M40.4005 18.0832C40.3998 18.0899 40.3998 18.0966 40.4005 18.1033C40.3997 18.11 40.3997 18.1168 40.4005 18.1234V18.1417C40.4037 18.1485 40.408 18.1547 40.4133 18.16L40.4352 18.1728C40.4453 18.1757 40.4561 18.1757 40.4662 18.1728H40.5191H40.5483C40.5547 18.1683 40.5602 18.1627 40.5647 18.1564C40.5693 18.1498 40.5724 18.1423 40.5739 18.1344C40.5748 18.1277 40.5748 18.121 40.5739 18.1143V18.096C40.5706 18.0898 40.5663 18.0842 40.5611 18.0796C40.5556 18.0737 40.5487 18.0692 40.541 18.0668C40.5315 18.064 40.5214 18.064 40.5118 18.0668H40.4516C40.4417 18.0682 40.4323 18.0719 40.4242 18.0777C40.4161 18.0781 40.408 18.08 40.4005 18.0832Z" fill="#F1F1F1"/>
<path d="M40.3459 17.6133C40.342 17.6202 40.339 17.6276 40.3367 17.6352C40.3358 17.6425 40.3358 17.6499 40.3367 17.6571C40.3359 17.6644 40.3359 17.6718 40.3367 17.6791C40.3395 17.6866 40.3446 17.693 40.3513 17.6974C40.3577 17.7031 40.3651 17.7074 40.3732 17.7102C40.3841 17.7121 40.3952 17.7121 40.4061 17.7102H40.4827C40.493 17.7115 40.5034 17.7115 40.5137 17.7102C40.5206 17.7056 40.5267 17.7001 40.532 17.6937C40.537 17.6872 40.5407 17.6797 40.5429 17.6718C40.5448 17.6646 40.5448 17.657 40.5429 17.6498C40.5445 17.6426 40.5445 17.6351 40.5429 17.6279C40.5396 17.6207 40.5346 17.6144 40.5283 17.6096C40.5213 17.6039 40.5132 17.5995 40.5046 17.5968C40.4943 17.5948 40.4838 17.5948 40.4736 17.5968H40.3969C40.3867 17.5953 40.3762 17.5953 40.3659 17.5968C40.3585 17.6013 40.3518 17.6069 40.3459 17.6133Z" fill="#F1F1F1"/>
<path d="M39.7161 17.4799L39.7928 18.1309C39.8186 18.3157 39.9091 18.4854 40.0481 18.6096C40.1871 18.7338 40.3656 18.8046 40.5518 18.8093H41.2342H41.3455C41.3611 18.8066 41.3756 18.7997 41.3876 18.7895C41.3996 18.7792 41.4086 18.7658 41.4136 18.7508C41.4187 18.7359 41.4196 18.7198 41.4163 18.7043C41.4129 18.6889 41.4055 18.6746 41.3948 18.663L41.1977 18.4801L41.1576 18.1437L41.0828 17.4908C41.0558 17.3061 40.9647 17.1369 40.8256 17.0128C40.6864 16.8887 40.5081 16.8178 40.3219 16.8124C40.2362 16.809 40.1507 16.8244 40.0716 16.8576C39.9924 16.8908 39.9215 16.9409 39.8637 17.0046C39.806 17.0682 39.7628 17.1437 39.7373 17.2258C39.7119 17.3079 39.7046 17.3947 39.7161 17.4799ZM40.6284 17.8931H40.6886C40.7102 17.8977 40.7306 17.9064 40.7489 17.9187C40.7696 17.9356 40.7864 17.9568 40.7981 17.9809C40.8164 18.015 40.8282 18.0522 40.8328 18.0906C40.8328 18.0906 40.8328 18.1053 40.8328 18.1144V18.1437C40.8337 18.1528 40.8337 18.162 40.8328 18.1711C40.834 18.179 40.834 18.187 40.8328 18.1949C40.8278 18.2063 40.8187 18.2155 40.8072 18.2205C40.7949 18.2249 40.7813 18.2249 40.7689 18.2205C40.7572 18.2184 40.7467 18.2119 40.7397 18.2022C40.7324 18.1928 40.7285 18.1812 40.7288 18.1693V18.1363C40.7296 18.1248 40.7296 18.1132 40.7288 18.1016C40.7272 18.0885 40.7242 18.0756 40.7197 18.0632C40.7151 18.0537 40.7089 18.045 40.7014 18.0376C40.6951 18.0319 40.6876 18.0276 40.6795 18.0248H40.6449C40.6581 18.0361 40.6693 18.0497 40.6777 18.065C40.6864 18.0822 40.692 18.1008 40.6941 18.1199C40.6969 18.1417 40.6969 18.1639 40.6941 18.1857C40.6909 18.2068 40.6827 18.2268 40.6704 18.2442C40.6558 18.2624 40.637 18.2769 40.6157 18.2863C40.5874 18.2992 40.5572 18.3072 40.5263 18.3101H40.4952C40.4644 18.3148 40.433 18.3148 40.4022 18.3101C40.3794 18.304 40.3578 18.2941 40.3383 18.2808C40.322 18.2671 40.3095 18.2495 40.3018 18.2296C40.2925 18.2093 40.2864 18.1877 40.2836 18.1656C40.281 18.148 40.281 18.1302 40.2836 18.1126C40.2885 18.0943 40.2965 18.0769 40.3073 18.0614C40.2947 18.058 40.2837 18.0502 40.2763 18.0394C40.2678 18.0283 40.2627 18.015 40.2617 18.001C40.2597 17.9838 40.2635 17.9664 40.2726 17.9517C40.2783 17.9433 40.2859 17.9364 40.2948 17.9316C40.3037 17.9268 40.3136 17.9243 40.3237 17.9242L40.6284 17.8931ZM40.446 17.4396C40.4779 17.4328 40.5108 17.4328 40.5427 17.4396C40.5665 17.4484 40.5883 17.4622 40.6065 17.4799C40.6237 17.4975 40.6368 17.5188 40.6449 17.542C40.6535 17.5645 40.6596 17.5878 40.6631 17.6115C40.6658 17.6352 40.6658 17.6592 40.6631 17.6828C40.6608 17.7076 40.6526 17.7314 40.6394 17.7523C40.6267 17.7748 40.6085 17.7937 40.5865 17.8072C40.5584 17.8232 40.5273 17.8331 40.4952 17.8364H40.4314C40.4001 17.8432 40.3678 17.8432 40.3365 17.8364C40.3122 17.8286 40.2903 17.8148 40.2726 17.7962C40.2552 17.7785 40.2415 17.7573 40.2325 17.734C40.2234 17.7119 40.2179 17.6884 40.2161 17.6646C40.2124 17.6409 40.2124 17.6169 40.2161 17.5932C40.2192 17.5687 40.2273 17.5451 40.2398 17.5238C40.2532 17.5012 40.272 17.4823 40.2945 17.4689C40.3216 17.4521 40.3522 17.4421 40.3839 17.4396H40.446Z" fill="#F1F1F1"/>
<path d="M40.2581 18.0066C40.2591 18.0205 40.2642 18.0339 40.2727 18.045C40.2801 18.0558 40.2911 18.0635 40.3037 18.0669C40.2929 18.0825 40.2849 18.0998 40.28 18.1181C40.2774 18.1357 40.2774 18.1536 40.28 18.1711C40.2828 18.1933 40.2889 18.2149 40.2982 18.2351C40.3059 18.255 40.3184 18.2726 40.3347 18.2863C40.3542 18.2997 40.3758 18.3096 40.3986 18.3156C40.4294 18.3203 40.4608 18.3203 40.4916 18.3156H40.5226C40.5536 18.3128 40.5838 18.3047 40.612 18.2918C40.6334 18.2824 40.6522 18.268 40.6668 18.2498C40.6791 18.2324 40.6872 18.2123 40.6905 18.1913C40.6933 18.1694 40.6933 18.1473 40.6905 18.1254C40.6883 18.1063 40.6828 18.0877 40.6741 18.0706C40.6656 18.0553 40.6545 18.0416 40.6412 18.0303H40.6759C40.684 18.0331 40.6914 18.0374 40.6978 18.0431C40.7053 18.0505 40.7115 18.0592 40.716 18.0687C40.7206 18.0811 40.7236 18.094 40.7252 18.1071C40.726 18.1187 40.726 18.1303 40.7252 18.1419V18.1748C40.7249 18.1867 40.7288 18.1984 40.7361 18.2077C40.7431 18.2174 40.7536 18.224 40.7653 18.226C40.7777 18.2305 40.7912 18.2305 40.8036 18.226C40.8151 18.221 40.8242 18.2119 40.8292 18.2004C40.8304 18.1925 40.8304 18.1845 40.8292 18.1766C40.8301 18.1675 40.8301 18.1583 40.8292 18.1492V18.1145C40.8292 18.1145 40.8292 18.098 40.8292 18.0907C40.8245 18.0523 40.8128 18.0151 40.7945 17.981C40.7828 17.9569 40.766 17.9356 40.7452 17.9188C40.727 17.9065 40.7066 17.8978 40.685 17.8932H40.6248L40.3128 17.9298C40.3027 17.9298 40.2928 17.9323 40.2839 17.9371C40.275 17.9419 40.2674 17.9488 40.2617 17.9572C40.2551 17.9728 40.2538 17.9902 40.2581 18.0066ZM40.5044 18.0505C40.5139 18.0477 40.5241 18.0477 40.5336 18.0505C40.5413 18.0529 40.5482 18.0573 40.5537 18.0632C40.5589 18.0679 40.5632 18.0735 40.5664 18.0797V18.098C40.5673 18.1047 40.5673 18.1114 40.5664 18.1181C40.565 18.126 40.5619 18.1335 40.5573 18.1401C40.5528 18.1464 40.5472 18.152 40.5409 18.1565H40.5117H40.4588C40.4486 18.1594 40.4379 18.1594 40.4278 18.1565L40.4059 18.1437C40.4006 18.1384 40.3963 18.1322 40.3931 18.1254V18.1071C40.3923 18.1005 40.3923 18.0937 40.3931 18.087C40.3923 18.0803 40.3923 18.0736 40.3931 18.0669C40.3976 18.0605 40.4032 18.055 40.4095 18.0505C40.4176 18.0446 40.427 18.0409 40.4369 18.0395L40.5044 18.0505Z" fill="#EC2785"/>
<path d="M40.3002 17.4761C40.2777 17.4895 40.2589 17.5084 40.2455 17.5309C40.2329 17.5523 40.2249 17.5759 40.2217 17.6004C40.2181 17.6241 40.2181 17.6481 40.2217 17.6718C40.2235 17.6956 40.2291 17.7191 40.2382 17.7412C40.2472 17.7645 40.2608 17.7856 40.2783 17.8034C40.2959 17.8219 40.3179 17.8358 40.3422 17.8436C40.3734 17.8504 40.4058 17.8504 40.437 17.8436H40.5009C40.533 17.8403 40.5641 17.8303 40.5921 17.8144C40.6141 17.8009 40.6324 17.782 40.645 17.7595C40.6583 17.7386 40.6664 17.7147 40.6688 17.69C40.6715 17.6663 40.6715 17.6424 40.6688 17.6187C40.6653 17.5949 40.6591 17.5716 40.6505 17.5492C40.6424 17.5259 40.6294 17.5047 40.6122 17.4871C40.5939 17.4693 40.5722 17.4556 40.5483 17.4468C40.5165 17.44 40.4835 17.44 40.4516 17.4468H40.3878C40.3567 17.4496 40.3267 17.4596 40.3002 17.4761ZM40.4827 17.5785C40.4929 17.5765 40.5034 17.5765 40.5137 17.5785C40.5223 17.5812 40.5303 17.5856 40.5374 17.5913C40.5437 17.5961 40.5487 17.6024 40.552 17.6096C40.5536 17.6168 40.5536 17.6243 40.552 17.6315C40.5538 17.6387 40.5538 17.6463 40.552 17.6535C40.5498 17.6614 40.5461 17.6689 40.541 17.6754C40.5358 17.6818 40.5297 17.6873 40.5228 17.6919C40.5125 17.6931 40.5021 17.6931 40.4918 17.6919H40.4151C40.4043 17.6938 40.3932 17.6938 40.3823 17.6919C40.3742 17.6891 40.3668 17.6848 40.3604 17.6791C40.3537 17.6747 40.3485 17.6683 40.3458 17.6608C40.345 17.6535 40.345 17.6461 40.3458 17.6388C40.3449 17.6316 40.3449 17.6242 40.3458 17.6169C40.3481 17.6093 40.3511 17.6019 40.3549 17.5949C40.3609 17.5886 40.3676 17.583 40.375 17.5785C40.3853 17.577 40.3957 17.577 40.406 17.5785H40.4827Z" fill="#EC2785"/>
</svg>
