<svg width="24" height="24" viewBox="0 0 24 24" fill="none" xmlns="http://www.w3.org/2000/svg">
<path d="M16.294 22H6.72049C5.22375 22 4 20.7136 4 19.1296C4 17.5456 5.22375 16.2592 6.72049 16.2592H9.48805C10.7118 16.2592 11.7096 15.184 11.7096 13.8496C11.7096 12.5248 10.7118 11.44 9.48805 11.44H7.6336C7.24765 11.44 6.92759 11.1136 6.92759 10.72C6.92759 10.3264 7.23823 10 7.6336 10H9.48805C11.4931 10 13.1217 11.728 13.1217 13.8496C13.1217 15.9712 11.4931 17.6992 9.48805 17.6992H6.72049C5.99566 17.6992 5.41202 18.3424 5.41202 19.1296C5.41202 19.9168 5.99566 20.56 6.72049 20.56H16.294C16.6799 20.56 17 20.8864 17 21.28C17 21.6736 16.6799 22 16.294 22Z" fill="#5F59F7"/>
<path d="M5.00464 11C4.74464 11 4.5032 10.8468 4.38248 10.6074L2.33029 6.49043C1.8567 5.53298 1.89385 4.41277 2.43243 3.49362C2.95245 2.59362 3.87176 2.0383 4.89321 2H5.07893C5.08822 2 5.0975 2 5.10679 2C6.12824 2.0383 7.04755 2.59362 7.56757 3.49362C8.10615 4.42234 8.1433 5.54255 7.66971 6.49043L5.61752 10.6074C5.50608 10.8564 5.26465 11 5.00464 11ZM5.07893 3.43617H4.92107C4.39177 3.45532 3.89961 3.75213 3.62104 4.23085C3.34246 4.72872 3.3146 5.32234 3.57461 5.83936L5.00464 8.7117L6.43468 5.83936C6.6854 5.33192 6.66683 4.72872 6.37896 4.23085C6.10039 3.7617 5.61752 3.46489 5.07893 3.43617Z" fill="#5F59F7"/>
<path d="M19.0046 22C18.7446 22 18.5032 21.8468 18.3825 21.6074L16.3303 17.4904C15.8567 16.533 15.8938 15.4128 16.4324 14.4936C16.9524 13.5936 17.8718 13.0383 18.8932 13H19.0789C19.0882 13 19.0975 13 19.1068 13C20.1282 13.0383 21.0476 13.5936 21.5676 14.4936C22.1062 15.4223 22.1433 16.5426 21.6697 17.4904L19.6175 21.6074C19.5061 21.8564 19.2646 22 19.0046 22ZM19.0789 14.4362H18.9211C18.3918 14.4553 17.8996 14.7521 17.621 15.2309C17.3425 15.7287 17.3146 16.3223 17.5746 16.8394L19.0046 19.7117L20.4347 16.8394C20.6854 16.3319 20.6668 15.7287 20.379 15.2309C20.1004 14.7617 19.6175 14.4649 19.0789 14.4362Z" fill="#5F59F7"/>
<circle cx="5" cy="5" r="1" fill="#5F59F7"/>
<circle cx="19" cy="16" r="1" fill="#5F59F7"/>
</svg>
