<svg width="20" height="20" viewBox="0 0 20 20" fill="none" xmlns="http://www.w3.org/2000/svg">
<path d="M1.75 10C1.75 5.44365 5.44365 1.75 10 1.75C12.7802 1.75 15.1982 3.12612 16.6816 5.24467L14.5022 5.23828C14.088 5.23707 13.7512 5.57187 13.75 5.98608C13.7488 6.4003 14.0836 6.73706 14.4978 6.73828L17.9491 6.74839C17.9817 6.75065 18.0147 6.75076 18.0477 6.74868L18.4978 6.75C18.6971 6.75058 18.8884 6.67182 19.0296 6.53111C19.1707 6.39039 19.25 6.19929 19.25 6L19.25 2C19.25 1.58579 18.9142 1.25 18.5 1.25C18.0858 1.25 17.75 1.58579 17.75 2L17.75 4.16237C15.9894 1.79113 13.2004 0.25 10 0.25C4.61522 0.25 0.25 4.61522 0.25 10C0.25 15.3848 4.61522 19.75 10 19.75C13.8354 19.75 17.0799 17.5367 18.6716 14.3338C18.856 13.9628 18.7047 13.5127 18.3338 13.3284C17.9628 13.144 17.5127 13.2953 17.3284 13.6662C15.9747 16.3902 13.2321 18.25 10 18.25C5.44365 18.25 1.75 14.5563 1.75 10Z" fill="white"/>
</svg>
