<svg width="16" height="17" viewBox="0 0 16 17" fill="none" xmlns="http://www.w3.org/2000/svg">
<path d="M2.5 8.5C2.5 5.46243 4.96243 3 8 3C9.85346 3 11.4655 3.91742 12.4544 5.32978L11.0015 5.32552C10.7253 5.32471 10.5008 5.54791 10.5 5.82406C10.4992 6.1002 10.7224 6.32471 10.9985 6.32552L13.2994 6.33226C13.3212 6.33376 13.3431 6.33384 13.3651 6.33245L13.6652 6.33333C13.7981 6.33372 13.9256 6.28121 14.0197 6.1874C14.1138 6.09359 14.1667 5.9662 14.1667 5.83333L14.1667 3.16667C14.1667 2.89052 13.9428 2.66667 13.6667 2.66667C13.3905 2.66667 13.1667 2.89052 13.1667 3.16667L13.1667 4.60825C11.993 3.02742 10.1336 2 8 2C4.41015 2 1.5 4.91015 1.5 8.5C1.5 12.0899 4.41015 15 8 15C10.5569 15 12.72 13.5245 13.7811 11.3892C13.904 11.1419 13.8031 10.8418 13.5559 10.7189C13.3086 10.596 13.0085 10.6969 12.8856 10.9442C11.9831 12.7601 10.1547 14 8 14C4.96243 14 2.5 11.5376 2.5 8.5Z" fill="white"/>
<path fill-rule="evenodd" clip-rule="evenodd" d="M8 5.33325C8.27614 5.33325 8.5 5.55711 8.5 5.83325V8.22378C8.5 8.26798 8.51756 8.31037 8.54882 8.34163L9.68689 9.4797C9.88215 9.67496 9.88215 9.99154 9.68689 10.1868C9.49162 10.3821 9.17504 10.3821 8.97978 10.1868L7.84171 9.04873C7.62292 8.82994 7.5 8.5332 7.5 8.22378V5.83325C7.5 5.55711 7.72386 5.33325 8 5.33325Z" fill="white"/>
</svg>
