<svg width="24" height="24" viewBox="0 0 24 24" fill="none" xmlns="http://www.w3.org/2000/svg">
<path d="M18.5 16.5705C17.33 16.5705 16.18 16.3905 15.09 16.0305C14.57 15.8505 13.93 16.0105 13.61 16.3405L11.45 17.9705C8.97 16.6505 7.39 15.0705 6.09 12.6105L7.67 10.5005C8.07 10.1005 8.21 9.52055 8.04 8.97055C7.68 7.88055 7.5 6.73055 7.5 5.56055C7.5 4.73055 6.83 4.06055 6 4.06055H2.5C1.67 4.06055 1 4.73055 1 5.56055C1 15.2105 8.85 23.0605 18.5 23.0605C19.33 23.0605 20 22.3905 20 21.5605V18.0705C20 17.2405 19.33 16.5705 18.5 16.5705Z" fill="white"/>
<path d="M17.4301 1C14.4001 1 11.9301 3.47 11.9301 6.5C11.9301 9.53 14.4001 12 17.4301 12C20.4601 12 22.9301 9.53 22.9301 6.5C22.9301 3.47 20.4601 1 17.4301 1ZM17.4301 3C17.7101 3 17.9301 3.22 17.9301 3.5C17.9301 3.78 17.7101 4 17.4301 4C17.1501 4 16.9301 3.78 16.9301 3.5C16.9301 3.22 17.1501 3 17.4301 3ZM18.4301 10H16.4301C16.1501 10 15.9301 9.78 15.9301 9.5C15.9301 9.22 16.1501 9 16.4301 9H16.9301V6.31L16.6501 6.45C16.4001 6.57 16.1001 6.47 15.9801 6.23C15.8601 5.98 15.9601 5.68 16.2001 5.56L17.2001 5.06C17.3601 4.98 17.5401 4.99 17.6901 5.08C17.8401 5.17 17.9301 5.33 17.9301 5.51V9H18.4301C18.7101 9 18.9301 9.22 18.9301 9.5C18.9301 9.78 18.7101 10 18.4301 10Z" fill="white"/>
</svg>
