<svg width="14" height="14" viewBox="0 0 14 14" fill="none" xmlns="http://www.w3.org/2000/svg">
<path fill-rule="evenodd" clip-rule="evenodd" d="M9.49593 1.66683C9.49593 2.40321 8.89898 3.00016 8.1626 3.00016C7.42622 3.00016 6.82926 2.40321 6.82926 1.66683C6.82926 0.93045 7.42622 0.333496 8.1626 0.333496C8.89898 0.333496 9.49593 0.93045 9.49593 1.66683ZM8.49593 1.66683C8.49593 1.85092 8.34669 2.00016 8.1626 2.00016C7.9785 2.00016 7.82926 1.85092 7.82926 1.66683C7.82926 1.48273 7.9785 1.3335 8.1626 1.3335C8.34669 1.3335 8.49593 1.48273 8.49593 1.66683Z" fill="#FBA089"/>
<path fill-rule="evenodd" clip-rule="evenodd" d="M2.82926 13.6668C4.30202 13.6668 5.49593 12.4729 5.49593 11.0002C5.49593 9.5274 4.30202 8.3335 2.82926 8.3335C1.35651 8.3335 0.162598 9.5274 0.162598 11.0002C0.162598 12.4729 1.35651 13.6668 2.82926 13.6668ZM2.82926 12.6668C3.74974 12.6668 4.49593 11.9206 4.49593 11.0002C4.49593 10.0797 3.74974 9.3335 2.82926 9.3335C1.90879 9.3335 1.1626 10.0797 1.1626 11.0002C1.1626 11.9206 1.90879 12.6668 2.82926 12.6668Z" fill="#FBA089"/>
<path fill-rule="evenodd" clip-rule="evenodd" d="M10.8293 13.6668C12.302 13.6668 13.4959 12.4729 13.4959 11.0002C13.4959 9.5274 12.302 8.3335 10.8293 8.3335C10.824 8.3335 10.8188 8.33351 10.8135 8.33354L10.1451 6.1668H10.8292C11.1054 6.1668 11.3292 5.94294 11.3292 5.6668C11.3292 5.39066 11.1054 5.1668 10.8292 5.1668H9.03633L7.70946 3.83993C7.21778 3.34825 6.40787 3.39311 5.97349 3.93608L4.22638 6.11998C3.79895 6.65426 3.92094 7.43998 4.49024 7.81951L6.59203 9.22071L6.01082 11.5455C5.94385 11.8134 6.10673 12.0849 6.37463 12.1519C6.64252 12.2188 6.91399 12.056 6.98096 11.7881L7.58433 9.37462C7.67354 9.01777 7.52879 8.64336 7.22274 8.43933L5.04494 6.98746C4.96361 6.93324 4.94618 6.821 5.00724 6.74467L6.75436 4.56077C6.81641 4.48321 6.93212 4.4768 7.00236 4.54704L8.36719 5.91188C8.53042 6.0751 8.7518 6.1668 8.98264 6.1668H9.09858L9.82708 8.52822C8.85096 8.92435 8.1626 9.88187 8.1626 11.0002C8.1626 12.4729 9.3565 13.6668 10.8293 13.6668ZM10.8293 12.6668C11.7497 12.6668 12.4959 11.9206 12.4959 11.0002C12.4959 10.0797 11.7497 9.3335 10.8293 9.3335C9.90879 9.3335 9.1626 10.0797 9.1626 11.0002C9.1626 11.9206 9.90879 12.6668 10.8293 12.6668Z" fill="#FBA089"/>
</svg>
