<svg width="16" height="16" viewBox="0 0 16 16" fill="none" xmlns="http://www.w3.org/2000/svg">
<path d="M2.5 8C2.5 4.96243 4.96243 2.5 8 2.5C9.85346 2.5 11.4655 3.41742 12.4544 4.82978L11.0015 4.82552C10.7253 4.82471 10.5008 5.04791 10.5 5.32406C10.4992 5.6002 10.7224 5.82471 10.9985 5.82552L13.2994 5.83226C13.3212 5.83376 13.3431 5.83384 13.3651 5.83245L13.6652 5.83333C13.7981 5.83372 13.9256 5.78121 14.0197 5.6874C14.1138 5.59359 14.1667 5.4662 14.1667 5.33333L14.1667 2.66667C14.1667 2.39052 13.9428 2.16667 13.6667 2.16667C13.3905 2.16667 13.1667 2.39052 13.1667 2.66667L13.1667 4.10825C11.993 2.52742 10.1336 1.5 8 1.5C4.41015 1.5 1.5 4.41015 1.5 8C1.5 11.5899 4.41015 14.5 8 14.5C10.5569 14.5 12.72 13.0245 13.7811 10.8892C13.904 10.6419 13.8031 10.3418 13.5559 10.2189C13.3086 10.096 13.0085 10.1969 12.8856 10.4442C11.9831 12.2601 10.1547 13.5 8 13.5C4.96243 13.5 2.5 11.0376 2.5 8Z" fill="#FBA089"/>
<path fill-rule="evenodd" clip-rule="evenodd" d="M8 4.83398C8.27614 4.83398 8.5 5.05784 8.5 5.33398V7.72451C8.5 7.76871 8.51756 7.8111 8.54882 7.84236L9.68689 8.98043C9.88215 9.17569 9.88215 9.49228 9.68689 9.68754C9.49162 9.8828 9.17504 9.8828 8.97978 9.68754L7.84171 8.54947C7.62292 8.33067 7.5 8.03393 7.5 7.72451V5.33398C7.5 5.05784 7.72386 4.83398 8 4.83398Z" fill="#FBA089"/>
</svg>
