<svg width="18" height="16" viewBox="0 0 18 16" fill="none" xmlns="http://www.w3.org/2000/svg">
<g clip-path="url(#clip0)">
<path d="M10.999 2.81295C10.8037 2.61769 10.4871 2.61769 10.2919 2.81295C10.0966 3.00821 10.0966 3.32479 10.2919 3.52006L11.1024 4.33061H6.97876C4.49348 4.33061 2.47876 6.34533 2.47876 8.83061V9.49727C2.47876 9.77342 2.70262 9.99727 2.97876 9.99727C3.2549 9.99727 3.47876 9.77342 3.47876 9.49727V8.83061C3.47876 6.89761 5.04576 5.33061 6.97876 5.33061H11.1056L10.2919 6.1443C10.0966 6.33957 10.0966 6.65615 10.2919 6.85141C10.4871 7.04667 10.8037 7.04667 10.999 6.8514L12.4289 5.42142C12.7544 5.09599 12.7544 4.56836 12.4289 4.24292L10.999 2.81295Z" fill="#FBA089"/>
<path d="M5.95854 13.1841C6.1538 13.3794 6.47038 13.3794 6.66564 13.1841C6.86091 12.9889 6.86091 12.6723 6.66565 12.477L5.85511 11.6665L9.97876 11.6665C12.464 11.6665 14.4788 9.65174 14.4788 7.16646L14.4788 6.4998C14.4788 6.22365 14.2549 5.9998 13.9788 5.9998C13.7026 5.9998 13.4788 6.22365 13.4788 6.4998L13.4788 7.16646C13.4788 9.09946 11.9118 10.6665 9.97876 10.6665L5.85197 10.6665L6.66565 9.85277C6.86091 9.6575 6.86091 9.34092 6.66564 9.14566C6.47038 8.9504 6.1538 8.9504 5.95854 9.14567L4.52858 10.5756C4.20315 10.9011 4.20315 11.4287 4.52859 11.7541L5.95854 13.1841Z" fill="#FBA089"/>
<circle cx="3.14543" cy="11.3332" r="0.666667" fill="#FBA089"/>
<circle cx="13.8122" cy="4.66667" r="0.666667" fill="#FBA089"/>
</g>
<defs>
<clipPath id="clip0">
<rect width="16.8293" height="16" fill="white" transform="translate(0.47876)"/>
</clipPath>
</defs>
</svg>
